PathFileType	4	(X/Y/Z)	../Python\walking\Walking06\task.trc
DataRate	CameraRate	NumFrames	NumMarkers	Units	OrigDataRate	OrigDataStartFrame	OrigNumFrames
200.000000	200.000000	5	30	mm	200.000000	0	551
Frame#	Time	CLAV			STRN			RASI			RPSI			LPSI			LASI			RTH1			RTH2			RTH3			RTB1			RTB2			RTB3			RD5M			RTOE			LTH1			LTH3			LTB1			LTB2			LTB3			LTOE			LD5M			PE03			T10			PE01			LHEE			PE02			LTH2			C7			RHEE			RBAK			
		X1	Y1	Z1	X2	Y2	Z2	X3	Y3	Z3	X4	Y4	Z4	X5	Y5	Z5	X6	Y6	Z6	X7	Y7	Z7	X8	Y8	Z8	X9	Y9	Z9	X10	Y10	Z10	X11	Y11	Z11	X12	Y12	Z12	X13	Y13	Z13	X14	Y14	Z14	X15	Y15	Z15	X16	Y16	Z16	X17	Y17	Z17	X18	Y18	Z18	X19	Y19	Z19	X20	Y20	Z20	X21	Y21	Z21	X22	Y22	Z22	X23	Y23	Z23	X24	Y24	Z24	X25	Y25	Z25	X26	Y26	Z26	X27	Y27	Z27	X28	Y28	Z28	X29	Y29	Z29	X30	Y30	Z30	

1	0	-844.4338378906255	1413.556762695313	201.1012115478517	-785.327026367188	1222.12158203125	219.8205413818361	-815.5634765625005	989.1159667968755	359.6117553710939	-972.470336914063	1042.516723632813	264.8584899902345	-971.131958007813	1054.0146484375	165.5423126220704	-789.035522460938	1023.752990722657	87.22153472900393	-872.6599731445317	724.4678955078127	392.0430297851565	-929.4694213867192	705.1350097656252	377.7531127929689	-911.7265625000005	657.833435058594	372.6111755371095	-1019.841247558594	363.0270385742189	348.6316833496095	-1081.607177734375	371.8030395507814	352.2588500976564	-1087.822875976563	322.803924560547	340.4656066894532	-1341.739135742188	103.8199691772462	329.9777832031251	-1308.681030273438	65.54121398925784	292.4417114257814	-792.8972167968755	716.281677246094	45.47657394409181	-753.9917602539065	651.143005371094	67.39173889160159	-757.4528808593752	355.322967529297	98.06047821044928	-786.1891479492192	315.8142089843751	109.4130172729493	-734.0764770507815	281.8259582519532	112.4099197387696	-591.195251464844	31.89800262451173	188.1945800781251	-633.0550537109377	15.98670387268067	137.4751739501954	-977.254760742188	1038.3955078125	189.7183227539063	-1013.024658203125	1241.523071289063	207.9303283691407	-965.944213867188	1095.603515625	220.8532562255861	-803.2683105468755	31.53394126892091	190.1612701416016	-976.251098632813	1032.825805664063	240.3553161621095	-811.2750854492192	670.7803344726565	55.74104690551761	-960.932495117188	1501.50634765625	185.9367828369141	-1342.297607421875	266.287322998047	268.3095703125001	-976.4207153320317	1421.51904296875	366.7709350585939	
2	0.005	-837.1691894531255	1414.326782226563	200.8427276611329	-778.2072753906255	1222.7470703125	219.6734771728517	-808.5771484375005	989.8008422851567	359.3511962890626	-965.5709838867192	1042.88232421875	264.7732543945314	-964.3558959960942	1054.581298828125	165.5326843261719	-782.2133789062505	1024.697509765625	86.72653961181643	-862.3906860351567	724.6487426757815	391.7750244140627	-918.7595825195317	704.268493652344	377.173797607422	-900.1533203125005	657.3295898437502	372.2550659179689	-1004.607116699219	363.2610473632814	348.6632690429689	-1066.281860351563	372.6074829101564	352.8349914550782	-1073.04443359375	323.7677307128907	340.5025024414064	-1328.695190429688	108.5447311401368	332.364715576172	-1295.797607421875	68.73624420166018	296.0194396972657	-788.323852539063	716.456970214844	45.37368392944337	-750.3850097656252	650.7911376953127	67.37303161621097	-755.8994750976565	355.2700195312501	98.06045532226568	-784.821166992188	315.9474182128907	109.5146026611329	-732.942810058594	281.4931640625001	112.2689285278321	-591.0437622070315	31.7883701324463	188.1353149414063	-633.0856933593752	15.90760707855225	137.4008483886719	-970.4286499023442	1038.890380859375	189.6578369140626	-1005.922729492188	1242.439819335938	207.6273498535157	-959.0801391601567	1096.0556640625	220.8650054931642	-803.3120727539067	31.57624816894533	190.2511596679688	-969.406860351563	1033.254272460938	240.2763519287111	-807.3203735351567	671.168884277344	55.68306732177737	-953.6303100585942	1502.39697265625	185.5643920898438	-1328.674682617188	269.771209716797	267.6026306152345	-969.262084960938	1422.452026367188	366.414764404297	
3	0.01	-829.9546508789067	1415.110107421875	200.5969238281251	-771.1460571289067	1223.391479492188	219.5199737548829	-801.6449584960942	990.6011352539067	359.1172180175782	-958.7073364257817	1043.331909179688	264.6357421875001	-957.6011352539067	1055.193725585938	165.4604034423829	-775.4220581054692	1025.588745117188	86.25359344482425	-852.2482299804692	725.0203857421877	391.5580749511721	-908.1449584960942	703.6191406250002	376.5948486328126	-888.694702148438	657.0705566406252	371.9002685546876	-989.3225708007817	363.7276306152345	348.6739807128907	-1050.917358398438	373.5672302246095	353.2934570312501	-1058.15380859375	324.865936279297	340.5094604492189	-1314.838012695313	112.9590682983399	334.7839965820314	-1281.94775390625	71.81359863281253	299.6106567382814	-784.1394653320317	716.5717773437502	45.36344146728517	-747.149108886719	650.3806152343752	67.35293579101565	-754.4677734375002	355.195770263672	98.0577011108399	-783.5739135742192	316.0582580566407	109.6305007934571	-731.9483032226565	281.1292419433595	112.1074600219727	-590.896423339844	31.67324256896974	188.0879058837891	-633.1016235351565	15.82609272003175	137.3388977050782	-963.6338500976567	1039.44091796875	189.5478820800782	-998.8793945312505	1243.383056640625	207.3190155029298	-952.243774414063	1096.573364257813	220.8081665039064	-803.3505249023442	31.6298122406006	190.337142944336	-962.5947875976567	1033.756225585938	240.151092529297	-803.7495117187505	671.5109863281252	55.77272033691409	-946.3648071289067	1503.308227539063	185.2105560302735	-1314.9150390625	272.7933959960939	266.738006591797	-962.148559570313	1423.400512695313	366.0677490234376	
4	0.015	-822.7898559570317	1415.906982421875	200.3624572753907	-764.139099121094	1224.058349609375	219.3578186035157	-794.757934570313	991.514770507813	358.9044494628907	-951.8726196289067	1043.869873046875	264.4489746093751	-950.8624877929692	1055.85693359375	165.3272094726563	-768.6599731445317	1026.430297851563	85.80474853515628	-842.2328491210942	725.5775146484377	391.3897705078127	-897.6279296875005	703.184509277344	376.015350341797	-877.3551635742192	657.0487060546877	371.545623779297	-974.0046997070317	364.4243469238282	348.6730041503907	-1035.533081054688	374.6773376464845	353.6312561035157	-1043.165649414063	326.0889892578126	340.4987182617189	-1300.19873046875	117.018165588379	337.2089233398439	-1267.170532226563	74.73221588134768	303.1690979003907	-780.281127929688	716.6529541015627	45.43169021606447	-744.1917724609377	649.9534912109377	67.32572937011722	-753.127380371094	355.1114501953126	98.05236053466803	-782.4272460937505	316.1577453613282	109.7590560913087	-731.0589599609377	280.7691040039064	111.9151611328126	-590.7551879882815	31.55527496337892	188.0532836914063	-633.105651855469	15.74626255035401	137.287338256836	-956.8650512695317	1040.051391601563	189.3907165527344	-991.8908691406255	1244.349853515625	207.0051269531251	-945.4299316406255	1097.161254882813	220.6850891113282	-803.3847045898442	31.6935214996338	190.4197845458985	-955.8083496093755	1034.335815429688	239.9818572998048	-800.481079101563	671.8266601562502	55.98559570312503	-939.1364746093755	1504.237915039063	184.874740600586	-1301.024169921875	275.3377685546876	265.7643432617189	-955.0793457031255	1424.362548828125	365.7285156250001	
5	0.02	-815.6740112304692	1416.71728515625	200.1379241943361	-757.1821289062502	1224.750854492188	219.1849060058595	-787.9076538085942	992.5379028320317	358.7072143554689	-945.0604858398442	1044.499389648438	264.2174682617189	-944.1355590820317	1056.57421875	165.1366577148438	-761.925964355469	1027.225952148438	85.3808288574219	-832.3418579101567	726.3125610351565	391.2667236328127	-887.208374023438	702.9586181640627	375.4343261718751	-866.135620117188	657.2529296875002	371.1895141601564	-958.668579101563	365.3453063964845	348.6683654785157	-1020.145629882813	375.9297790527345	353.847381591797	-1028.093139648438	327.4249572753907	340.4815979003907	-1284.818115234375	120.6844787597657	339.6116943359376	-1251.514892578125	77.45585632324222	306.6511840820314	-776.680297851563	716.7265625000002	45.56293106079103	-741.4212036132815	649.5477294921877	67.28826141357425	-751.8504638671877	355.0272521972657	98.04535675048834	-781.3545532226567	316.2544250488282	109.8927307128907	-730.233093261719	280.4446105957032	111.6955566406251	-590.6221313476565	31.43746757507326	188.0310516357422	-633.1006469726565	15.67142200469971	137.2445068359376	-950.1171875000005	1040.72509765625	189.1900329589844	-984.953002929688	1245.337280273438	206.6855773925782	-938.6340942382817	1097.822143554688	220.4995422363282	-803.4155273437505	31.76604080200197	190.5001068115235	-949.0415039062505	1034.995361328125	239.7723236083986	-797.4314575195317	672.1356201171877	56.29432296752933	-931.945434570313	1505.183837890625	184.5562896728516	-1287.003662109375	277.393524169922	264.7281799316407	-948.0530395507817	1425.33642578125	365.3958435058595	
